<svg id="visual" viewBox="0 0 3000 600" width="3000" height="600" xmlns="http://www.w3.org/2000/svg" xmlns:xlink="http://www.w3.org/1999/xlink" version="1.1"><rect x="0" y="0" width="3000" height="600" fill="#fff"></rect><path d="M0 386L71.5 391.2C143 396.3 286 406.7 428.8 405.7C571.7 404.7 714.3 392.3 857.2 385C1000 377.7 1143 375.3 1285.8 370.2C1428.7 365 1571.3 357 1714.2 364.2C1857 371.3 2000 393.7 2142.8 408.2C2285.7 422.7 2428.3 429.3 2571.2 430.8C2714 432.3 2857 428.7 2928.5 426.8L3000 425L3000 601L2928.5 601C2857 601 2714 601 2571.2 601C2428.3 601 2285.7 601 2142.8 601C2000 601 1857 601 1714.2 601C1571.3 601 1428.7 601 1285.8 601C1143 601 1000 601 857.2 601C714.3 601 571.7 601 428.8 601C286 601 143 601 71.5 601L0 601Z" fill="#0ea5e9"></path><path d="M0 463L71.5 465.2C143 467.3 286 471.7 428.8 471C571.7 470.3 714.3 464.7 857.2 450.8C1000 437 1143 415 1285.8 415C1428.7 415 1571.3 437 1714.2 443.7C1857 450.3 2000 441.7 2142.8 444.5C2285.7 447.3 2428.3 461.7 2571.2 465.5C2714 469.3 2857 462.7 2928.5 459.3L3000 456L3000 601L2928.5 601C2857 601 2714 601 2571.2 601C2428.3 601 2285.7 601 2142.8 601C2000 601 1857 601 1714.2 601C1571.3 601 1428.7 601 1285.8 601C1143 601 1000 601 857.2 601C714.3 601 571.7 601 428.8 601C286 601 143 601 71.5 601L0 601Z" fill="#0093eb"></path><path d="M0 507L71.5 496C143 485 286 463 428.8 455.5C571.7 448 714.3 455 857.2 466.3C1000 477.7 1143 493.3 1285.8 499.8C1428.7 506.3 1571.3 503.7 1714.2 502.5C1857 501.3 2000 501.7 2142.8 494.5C2285.7 487.3 2428.3 472.7 2571.2 469.5C2714 466.3 2857 474.7 2928.5 478.8L3000 483L3000 601L2928.5 601C2857 601 2714 601 2571.2 601C2428.3 601 2285.7 601 2142.8 601C2000 601 1857 601 1714.2 601C1571.3 601 1428.7 601 1285.8 601C1143 601 1000 601 857.2 601C714.3 601 571.7 601 428.8 601C286 601 143 601 71.5 601L0 601Z" fill="#007ee9"></path><path d="M0 534L71.5 535.2C143 536.3 286 538.7 428.8 530.5C571.7 522.3 714.3 503.7 857.2 501.5C1000 499.3 1143 513.7 1285.8 515C1428.7 516.3 1571.3 504.7 1714.2 501.5C1857 498.3 2000 503.7 2142.8 508.3C2285.7 513 2428.3 517 2571.2 512.3C2714 507.7 2857 494.3 2928.5 487.7L3000 481L3000 601L2928.5 601C2857 601 2714 601 2571.2 601C2428.3 601 2285.7 601 2142.8 601C2000 601 1857 601 1714.2 601C1571.3 601 1428.7 601 1285.8 601C1143 601 1000 601 857.2 601C714.3 601 571.7 601 428.8 601C286 601 143 601 71.5 601L0 601Z" fill="#0067e2"></path><path d="M0 572L71.5 564C143 556 286 540 428.8 535.5C571.7 531 714.3 538 857.2 538.8C1000 539.7 1143 534.3 1285.8 533.8C1428.7 533.3 1571.3 537.7 1714.2 539.8C1857 542 2000 542 2142.8 539.7C2285.7 537.3 2428.3 532.7 2571.2 535.5C2714 538.3 2857 548.7 2928.5 553.8L3000 559L3000 601L2928.5 601C2857 601 2714 601 2571.2 601C2428.3 601 2285.7 601 2142.8 601C2000 601 1857 601 1714.2 601C1571.3 601 1428.7 601 1285.8 601C1143 601 1000 601 857.2 601C714.3 601 571.7 601 428.8 601C286 601 143 601 71.5 601L0 601Z" fill="#1d4ed8"></path></svg>