<svg id="visual" viewBox="0 0 1536 768" width="1536" height="768" xmlns="http://www.w3.org/2000/svg" xmlns:xlink="http://www.w3.org/1999/xlink" version="1.1"><rect x="0" y="0" width="1536" height="768" fill="#fff"></rect><path d="M0 638L32 632C64 626 128 614 192 613.7C256 613.3 320 624.7 384 623.2C448 621.7 512 607.3 576 600.5C640 593.7 704 594.3 768 596.7C832 599 896 603 960 604C1024 605 1088 603 1152 605.2C1216 607.3 1280 613.7 1344 614C1408 614.3 1472 608.7 1504 605.8L1536 603L1536 769L1504 769C1472 769 1408 769 1344 769C1280 769 1216 769 1152 769C1088 769 1024 769 960 769C896 769 832 769 768 769C704 769 640 769 576 769C512 769 448 769 384 769C320 769 256 769 192 769C128 769 64 769 32 769L0 769Z" fill="#0ea5e9"></path><path d="M0 620L32 621.3C64 622.7 128 625.3 192 631.5C256 637.7 320 647.3 384 651.8C448 656.3 512 655.7 576 649C640 642.3 704 629.7 768 626.3C832 623 896 629 960 631.5C1024 634 1088 633 1152 630.8C1216 628.7 1280 625.3 1344 624.3C1408 623.3 1472 624.7 1504 625.3L1536 626L1536 769L1504 769C1472 769 1408 769 1344 769C1280 769 1216 769 1152 769C1088 769 1024 769 960 769C896 769 832 769 768 769C704 769 640 769 576 769C512 769 448 769 384 769C320 769 256 769 192 769C128 769 64 769 32 769L0 769Z" fill="#0093eb"></path><path d="M0 651L32 657.5C64 664 128 677 192 683C256 689 320 688 384 682.8C448 677.7 512 668.3 576 663.7C640 659 704 659 768 659.2C832 659.3 896 659.7 960 665C1024 670.3 1088 680.7 1152 683.2C1216 685.7 1280 680.3 1344 678.3C1408 676.3 1472 677.7 1504 678.3L1536 679L1536 769L1504 769C1472 769 1408 769 1344 769C1280 769 1216 769 1152 769C1088 769 1024 769 960 769C896 769 832 769 768 769C704 769 640 769 576 769C512 769 448 769 384 769C320 769 256 769 192 769C128 769 64 769 32 769L0 769Z" fill="#007ee9"></path><path d="M0 687L32 691.2C64 695.3 128 703.7 192 702.8C256 702 320 692 384 693C448 694 512 706 576 708.2C640 710.3 704 702.7 768 700.7C832 698.7 896 702.3 960 702.2C1024 702 1088 698 1152 699.8C1216 701.7 1280 709.3 1344 712.7C1408 716 1472 715 1504 714.5L1536 714L1536 769L1504 769C1472 769 1408 769 1344 769C1280 769 1216 769 1152 769C1088 769 1024 769 960 769C896 769 832 769 768 769C704 769 640 769 576 769C512 769 448 769 384 769C320 769 256 769 192 769C128 769 64 769 32 769L0 769Z" fill="#0067e2"></path><path d="M0 718L32 720C64 722 128 726 192 729.8C256 733.7 320 737.3 384 739.2C448 741 512 741 576 741.3C640 741.7 704 742.3 768 740C832 737.7 896 732.3 960 727.8C1024 723.3 1088 719.7 1152 719.2C1216 718.7 1280 721.3 1344 721.3C1408 721.3 1472 718.7 1504 717.3L1536 716L1536 769L1504 769C1472 769 1408 769 1344 769C1280 769 1216 769 1152 769C1088 769 1024 769 960 769C896 769 832 769 768 769C704 769 640 769 576 769C512 769 448 769 384 769C320 769 256 769 192 769C128 769 64 769 32 769L0 769Z" fill="#1d4ed8"></path></svg>